<svg width="48" height="48" viewBox="0 0 48 48" fill="none" xmlns="http://www.w3.org/2000/svg">
<path d="M10 8H12C13.5913 8 15.1174 8.63214 16.2426 9.75736C17.3679 10.8826 18 12.4087 18 14M18 14C18 12.4087 18.6321 10.8826 19.7574 9.75736C20.8826 8.63214 22.4087 8 24 8H26M18 14V34M26 40H24C22.4087 40 20.8826 39.3679 19.7574 38.2426C18.6321 37.1174 18 35.5913 18 34M18 34C18 35.5913 17.3679 37.1174 16.2426 38.2426C15.1174 39.3679 13.5913 40 12 40H10M10 32H8C6.93913 32 5.92172 31.5786 5.17157 30.8284C4.42143 30.0783 4 29.0609 4 28V20C4 18.9391 4.42143 17.9217 5.17157 17.1716C5.92172 16.4214 6.93913 16 8 16H10M26 16H40C41.0609 16 42.0783 16.4214 42.8284 17.1716C43.5786 17.9217 44 18.9391 44 20V28C44 29.0609 43.5786 30.0783 42.8284 30.8284C42.0783 31.5786 41.0609 32 40 32H26" stroke="url(#paint0_linear_1334_1359)" stroke-width="4" stroke-linecap="round" stroke-linejoin="round"/>
<defs>
<linearGradient id="paint0_linear_1334_1359" x1="4" y1="24" x2="44" y2="24" gradientUnits="userSpaceOnUse">
<stop stop-color="#6EE7B7"/>
<stop offset="1" stop-color="#34D399"/>
</linearGradient>
</defs>
</svg>
